<mxfile host="app.diagrams.net" agent="Mozilla/5.0 (Windows NT 10.0; Win64; x64) AppleWebKit/537.36 (KHTML, like Gecko) Chrome/141.0.0.0 Safari/537.36" version="28.2.7">
  <diagram name="Trang-1" id="x3_usw12BSWP1NNqTld4">
    <mxGraphModel dx="1042" dy="527" grid="1" gridSize="10" guides="1" tooltips="1" connect="1" arrows="1" fold="1" page="1" pageScale="1" pageWidth="827" pageHeight="1169" math="0" shadow="0">
      <root>
        <mxCell id="0" />
        <mxCell id="1" parent="0" />
        <mxCell id="jbbIRfW1CHsD2W-W5cTg-6" style="edgeStyle=orthogonalEdgeStyle;rounded=0;orthogonalLoop=1;jettySize=auto;html=1;" edge="1" parent="1" source="jbbIRfW1CHsD2W-W5cTg-1">
          <mxGeometry relative="1" as="geometry">
            <mxPoint x="450" y="140" as="targetPoint" />
          </mxGeometry>
        </mxCell>
        <mxCell id="jbbIRfW1CHsD2W-W5cTg-1" value="bắt đầu" style="ellipse;whiteSpace=wrap;html=1;" vertex="1" parent="1">
          <mxGeometry x="390" y="20" width="120" height="80" as="geometry" />
        </mxCell>
        <mxCell id="jbbIRfW1CHsD2W-W5cTg-5" value="nhập số nguyên 3cs n" style="shape=parallelogram;perimeter=parallelogramPerimeter;whiteSpace=wrap;html=1;fixedSize=1;" vertex="1" parent="1">
          <mxGeometry x="380" y="140" width="170" height="50" as="geometry" />
        </mxCell>
        <mxCell id="jbbIRfW1CHsD2W-W5cTg-8" value="&lt;span style=&quot;box-sizing: border-box; margin: 0px; padding: 0px; font-family: Arial, sans-serif; font-size: 16px; font-variant-numeric: normal; font-variant-east-asian: normal; font-variant-alternates: normal; font-variant-position: normal; font-variant-emoji: normal; text-align: start; white-space-collapse: preserve; background-color: rgb(255, 255, 255); vertical-align: baseline;&quot;&gt;Tách chữ số hàng đơn vị&amp;nbsp;&lt;/span&gt;&lt;span style=&quot;box-sizing: border-box; margin: 0px; padding: 0px; font-family: Arial, sans-serif; font-size: 16px; font-variant-numeric: normal; font-variant-east-asian: normal; font-variant-alternates: normal; font-variant-position: normal; font-variant-emoji: normal; text-align: start; white-space-collapse: preserve; background-color: rgb(255, 255, 255); vertical-align: baseline;&quot;&gt;&lt;span style=&quot;box-sizing: border-box; margin: 0px; padding: 0px; font-weight: bolder;&quot;&gt;d1 = n % 10&lt;/span&gt;&lt;/span&gt;" style="rounded=0;whiteSpace=wrap;html=1;" vertex="1" parent="1">
          <mxGeometry x="330" y="260" width="210" height="60" as="geometry" />
        </mxCell>
        <mxCell id="jbbIRfW1CHsD2W-W5cTg-9" style="edgeStyle=orthogonalEdgeStyle;rounded=0;orthogonalLoop=1;jettySize=auto;html=1;entryX=0.633;entryY=-0.007;entryDx=0;entryDy=0;entryPerimeter=0;" edge="1" parent="1" source="jbbIRfW1CHsD2W-W5cTg-5" target="jbbIRfW1CHsD2W-W5cTg-8">
          <mxGeometry relative="1" as="geometry" />
        </mxCell>
        <mxCell id="jbbIRfW1CHsD2W-W5cTg-14" style="edgeStyle=orthogonalEdgeStyle;rounded=0;orthogonalLoop=1;jettySize=auto;html=1;" edge="1" parent="1" source="jbbIRfW1CHsD2W-W5cTg-11">
          <mxGeometry relative="1" as="geometry">
            <mxPoint x="435" y="530" as="targetPoint" />
          </mxGeometry>
        </mxCell>
        <mxCell id="jbbIRfW1CHsD2W-W5cTg-11" value="&lt;div&gt;&lt;br&gt;&lt;/div&gt;&lt;div&gt;&lt;table style=&quot;margin: 0px; padding: 0px; caption-side: bottom; border-collapse: collapse; color: rgb(33, 37, 41); font-family: SFProDisplay; font-size: 16px; background-color: rgb(255, 255, 255); border-style: none;&quot; class=&quot;ck-table-resized&quot;&gt;&lt;tbody style=&quot;box-sizing: border-box; margin: 0px; padding: 0px; border-style: solid; border-width: 0px;&quot;&gt;&lt;tr style=&quot;box-sizing: border-box; margin: 0px; padding: 0.5rem; border-style: solid; border-width: 0px 0px 0.8px; color: rgb(0, 0, 0); box-shadow: rgba(0, 0, 0, 0) 0px 0px 0px 9999px inset; height: 40.7393pt;&quot;&gt;&lt;td style=&quot;box-sizing: border-box; margin: 0px; padding: 5pt; border-color: rgb(0, 0, 0); border-style: solid; border-width: 1pt; overflow-wrap: break-word; overflow: hidden; vertical-align: top;&quot;&gt;&lt;p style=&quot;box-sizing: border-box; margin: 0pt 0px 8pt; padding: 0px; line-height: 1.8;&quot; dir=&quot;ltr&quot;&gt;&lt;span style=&quot;box-sizing: border-box; margin: 0px; padding: 0px; background-color: transparent; font-family: Arial, sans-serif; font-size: 12pt;&quot;&gt;&lt;span style=&quot;box-sizing: border-box; margin: 0px; padding: 0px; font-variant-numeric: normal; font-variant-east-asian: normal; font-variant-alternates: normal; font-variant-position: normal; font-variant-emoji: normal; vertical-align: baseline; white-space-collapse: preserve;&quot;&gt;Tách chữ số hàng chục&amp;nbsp;&lt;/span&gt;&lt;span style=&quot;box-sizing: border-box; margin: 0px; padding: 0px; font-variant-numeric: normal; font-variant-east-asian: normal; font-variant-alternates: normal; font-variant-position: normal; font-variant-emoji: normal; vertical-align: baseline; white-space-collapse: preserve;&quot;&gt;&lt;span style=&quot;box-sizing: border-box; margin: 0px; padding: 0px; font-weight: bolder;&quot;&gt;d2 = (n / 10) % 10&lt;/span&gt;&lt;/span&gt;&lt;/span&gt;&lt;/p&gt;&lt;/td&gt;&lt;/tr&gt;&lt;/tbody&gt;&lt;/table&gt;&lt;/div&gt;" style="rounded=0;whiteSpace=wrap;html=1;" vertex="1" parent="1">
          <mxGeometry x="340" y="390" width="190" height="60" as="geometry" />
        </mxCell>
        <mxCell id="jbbIRfW1CHsD2W-W5cTg-13" style="edgeStyle=orthogonalEdgeStyle;rounded=0;orthogonalLoop=1;jettySize=auto;html=1;" edge="1" parent="1">
          <mxGeometry relative="1" as="geometry">
            <mxPoint x="434.6" y="310" as="sourcePoint" />
            <mxPoint x="435" y="380" as="targetPoint" />
          </mxGeometry>
        </mxCell>
        <mxCell id="jbbIRfW1CHsD2W-W5cTg-18" style="edgeStyle=orthogonalEdgeStyle;rounded=0;orthogonalLoop=1;jettySize=auto;html=1;" edge="1" parent="1" source="jbbIRfW1CHsD2W-W5cTg-16">
          <mxGeometry relative="1" as="geometry">
            <mxPoint x="435" y="680" as="targetPoint" />
          </mxGeometry>
        </mxCell>
        <mxCell id="jbbIRfW1CHsD2W-W5cTg-16" value="&lt;span style=&quot;box-sizing: border-box; margin: 0px; padding: 0px; font-family: Arial, sans-serif; font-size: 16px; font-variant-numeric: normal; font-variant-east-asian: normal; font-variant-alternates: normal; font-variant-position: normal; font-variant-emoji: normal; text-align: start; white-space-collapse: preserve; background-color: rgb(255, 255, 255); vertical-align: baseline;&quot;&gt;Tách chữ số hàng trăm&amp;nbsp;&lt;/span&gt;&lt;span style=&quot;box-sizing: border-box; margin: 0px; padding: 0px; font-family: Arial, sans-serif; font-size: 16px; font-variant-numeric: normal; font-variant-east-asian: normal; font-variant-alternates: normal; font-variant-position: normal; font-variant-emoji: normal; text-align: start; white-space-collapse: preserve; background-color: rgb(255, 255, 255); vertical-align: baseline;&quot;&gt;&lt;span style=&quot;box-sizing: border-box; margin: 0px; padding: 0px; font-weight: bolder;&quot;&gt;d3 = n / 100&lt;/span&gt;&lt;/span&gt;" style="rounded=0;whiteSpace=wrap;html=1;" vertex="1" parent="1">
          <mxGeometry x="352.5" y="530" width="165" height="65" as="geometry" />
        </mxCell>
        <mxCell id="jbbIRfW1CHsD2W-W5cTg-19" style="edgeStyle=orthogonalEdgeStyle;rounded=0;orthogonalLoop=1;jettySize=auto;html=1;" edge="1" parent="1" source="jbbIRfW1CHsD2W-W5cTg-17">
          <mxGeometry relative="1" as="geometry">
            <mxPoint x="435" y="830" as="targetPoint" />
          </mxGeometry>
        </mxCell>
        <mxCell id="jbbIRfW1CHsD2W-W5cTg-17" value="&lt;table style=&quot;margin: 0px; padding: 0px; caption-side: bottom; border-collapse: collapse; color: rgb(33, 37, 41); font-family: SFProDisplay; font-size: 16px; background-color: rgb(255, 255, 255); border-style: none;&quot; class=&quot;ck-table-resized&quot;&gt;&lt;tbody style=&quot;box-sizing: border-box; margin: 0px; padding: 0px; border-style: solid; border-width: 0px;&quot;&gt;&lt;tr style=&quot;box-sizing: border-box; margin: 0px; padding: 0.5rem; border-style: solid; border-width: 0px 0px 0.8px; color: rgb(0, 0, 0); box-shadow: rgba(0, 0, 0, 0) 0px 0px 0px 9999px inset; height: 25.75pt;&quot;&gt;&lt;td style=&quot;box-sizing: border-box; margin: 0px; padding: 5pt; border-color: rgb(0, 0, 0); border-style: solid; border-width: 1pt; overflow-wrap: break-word; overflow: hidden; vertical-align: top;&quot;&gt;&lt;p style=&quot;box-sizing: border-box; margin: 0pt 0px 8pt; padding: 0px; line-height: 1.8;&quot; dir=&quot;ltr&quot;&gt;&lt;span style=&quot;box-sizing: border-box; margin: 0px; padding: 0px; background-color: transparent; font-family: Arial, sans-serif; font-size: 12pt;&quot;&gt;&lt;span style=&quot;box-sizing: border-box; margin: 0px; padding: 0px; font-variant-numeric: normal; font-variant-east-asian: normal; font-variant-alternates: normal; font-variant-position: normal; font-variant-emoji: normal; vertical-align: baseline; white-space-collapse: preserve;&quot;&gt;Tạo số đảo ngược&amp;nbsp;&lt;/span&gt;&lt;span style=&quot;box-sizing: border-box; margin: 0px; padding: 0px; font-variant-numeric: normal; font-variant-east-asian: normal; font-variant-alternates: normal; font-variant-position: normal; font-variant-emoji: normal; vertical-align: baseline; white-space-collapse: preserve;&quot;&gt;&lt;span style=&quot;box-sizing: border-box; margin: 0px; padding: 0px; font-weight: bolder;&quot;&gt;reverse = d1 * 100 + d2 * 10 + d3&lt;/span&gt;&lt;/span&gt;&lt;/span&gt;&lt;/p&gt;&lt;/td&gt;&lt;td style=&quot;box-sizing: border-box; margin: 0px; padding: 5pt; border-color: rgb(0, 0, 0); border-style: solid; border-width: 1pt; overflow-wrap: break-word; overflow: hidden; vertical-align: top;&quot;&gt;&lt;/td&gt;&lt;/tr&gt;&lt;/tbody&gt;&lt;/table&gt;" style="rounded=0;whiteSpace=wrap;html=1;" vertex="1" parent="1">
          <mxGeometry x="291.25" y="700" width="287.5" height="60" as="geometry" />
        </mxCell>
        <mxCell id="jbbIRfW1CHsD2W-W5cTg-25" style="edgeStyle=orthogonalEdgeStyle;rounded=0;orthogonalLoop=1;jettySize=auto;html=1;" edge="1" parent="1" source="jbbIRfW1CHsD2W-W5cTg-24">
          <mxGeometry relative="1" as="geometry">
            <mxPoint x="428.75" y="950" as="targetPoint" />
          </mxGeometry>
        </mxCell>
        <mxCell id="jbbIRfW1CHsD2W-W5cTg-24" value="&lt;span style=&quot;box-sizing: border-box; margin: 0px; padding: 0px; font-family: Arial, sans-serif; font-size: 16px; font-variant-numeric: normal; font-variant-east-asian: normal; font-variant-alternates: normal; font-variant-position: normal; font-variant-emoji: normal; text-align: start; white-space-collapse: preserve; background-color: rgb(255, 255, 255); vertical-align: baseline;&quot;&gt;Xuất số đảo ngược&amp;nbsp;&lt;/span&gt;&lt;span style=&quot;box-sizing: border-box; margin: 0px; padding: 0px; font-family: Arial, sans-serif; font-size: 16px; font-variant-numeric: normal; font-variant-east-asian: normal; font-variant-alternates: normal; font-variant-position: normal; font-variant-emoji: normal; text-align: start; white-space-collapse: preserve; background-color: rgb(255, 255, 255); vertical-align: baseline;&quot;&gt;&lt;span style=&quot;box-sizing: border-box; margin: 0px; padding: 0px; font-weight: bolder;&quot;&gt;reverse&lt;/span&gt;&lt;/span&gt;" style="shape=parallelogram;perimeter=parallelogramPerimeter;whiteSpace=wrap;html=1;fixedSize=1;" vertex="1" parent="1">
          <mxGeometry x="291.25" y="830" width="275" height="80" as="geometry" />
        </mxCell>
        <mxCell id="jbbIRfW1CHsD2W-W5cTg-26" value="" style="ellipse;whiteSpace=wrap;html=1;" vertex="1" parent="1">
          <mxGeometry x="369" y="950" width="120" height="80" as="geometry" />
        </mxCell>
      </root>
    </mxGraphModel>
  </diagram>
</mxfile>
